HIERARCHY
ROOT Hips
{
	OFFSET 0.000000 0.000000 0.000000
	CHANNELS 6 Xposition Yposition Zposition Zrotation Yrotation Xrotation 
	JOINT LHipJoint
	{
		OFFSET 0.000000 0.000000 0.000000
		CHANNELS 3 Zrotation Yrotation Xrotation
		JOINT LeftUpLeg
		{
			OFFSET 1.363060 -1.794630 0.839290
			CHANNELS 3 Zrotation Yrotation Xrotation
			JOINT LeftLeg
			{
				OFFSET 2.448110 -6.726130 0.000000
				CHANNELS 3 Zrotation Yrotation Xrotation
				JOINT LeftFoot
				{
					OFFSET 2.562200 -7.039590 0.000000
					CHANNELS 3 Zrotation Yrotation Xrotation
					JOINT LeftToeBase
					{
						OFFSET 0.157640 -0.433110 2.322550
						CHANNELS 3 Zrotation Yrotation Xrotation
						End Site
						{
							OFFSET 0.000000 0.000000 0.000000
						}
					}
				}
			}
		}
	}
	JOINT RHipJoint
	{
		OFFSET 0.000000 0.000000 0.000000
		CHANNELS 3 Zrotation Yrotation Xrotation
		JOINT RightUpLeg
		{
			OFFSET -1.305520 -1.794630 0.839290
			CHANNELS 3 Zrotation Yrotation Xrotation
			JOINT RightLeg
			{
				OFFSET -2.542530 -6.985550 0.000000
				CHANNELS 3 Zrotation Yrotation Xrotation
				JOINT RightFoot
				{
					OFFSET -2.568260 -7.056230 0.000000
					CHANNELS 3 Zrotation Yrotation Xrotation
					JOINT RightToeBase
					{
						OFFSET -0.164730 -0.452590 2.363150
						CHANNELS 3 Zrotation Yrotation Xrotation
						End Site
						{
							OFFSET 0.000000 0.000000 0.000000
						}
					}
				}
			}
		}
	}
	JOINT LowerBack
	{
		OFFSET 0.000000 0.000000 0.000000
		CHANNELS 3 Zrotation Yrotation Xrotation
		JOINT Spine
		{
			OFFSET 0.028270 2.035590 -0.193380
			CHANNELS 3 Zrotation Yrotation Xrotation
			JOINT Spine1
			{
				OFFSET 0.056720 2.048850 -0.042750
				CHANNELS 3 Zrotation Yrotation Xrotation
				JOINT Neck
				{
					OFFSET 0.000000 0.000000 0.000000
					CHANNELS 3 Zrotation Yrotation Xrotation
					JOINT Neck1
					{
						OFFSET -0.054170 1.746240 0.172020
						CHANNELS 3 Zrotation Yrotation Xrotation
						JOINT Head
						{
							OFFSET 0.104070 1.761360 -0.123970
							CHANNELS 3 Zrotation Yrotation Xrotation
							End Site
							{
								OFFSET 0.000000 0.000000 0.000000
							}
						}
					}
				}
				JOINT LeftShoulder
				{
					OFFSET 0.000000 0.000000 0.000000
					CHANNELS 3 Zrotation Yrotation Xrotation
					JOINT LeftArm
					{
						OFFSET 3.362410 1.200890 -0.311210
						CHANNELS 3 Zrotation Yrotation Xrotation
						JOINT LeftForeArm
						{
							OFFSET 4.983000 -0.000000 -0.000000
							CHANNELS 3 Zrotation Yrotation Xrotation
							JOINT LeftHand
							{
								OFFSET 3.483560 -0.000000 -0.000000
								CHANNELS 3 Zrotation Yrotation Xrotation
								JOINT LeftFingerBase
								{
									OFFSET 0.000000 0.000000 0.000000
									CHANNELS 3 Zrotation Yrotation Xrotation
									JOINT LeftHandIndex1
									{
										OFFSET 0.715260 -0.000000 -0.000000
										CHANNELS 3 Zrotation Yrotation Xrotation
										End Site
										{
											OFFSET 0.000000 0.000000 0.000000
										}
									}
								}
								JOINT LThumb
								{
									OFFSET 0.000000 0.000000 0.000000
									CHANNELS 3 Zrotation Yrotation Xrotation
									End Site
									{
										OFFSET 0.000000 0.000000 0.000000
									}
								}
							}
						}
					}
				}
				JOINT RightShoulder
				{
					OFFSET 0.000000 0.000000 0.000000
					CHANNELS 3 Zrotation Yrotation Xrotation
					JOINT RightArm
					{
						OFFSET -3.136600 1.374050 -0.404650
						CHANNELS 3 Zrotation Yrotation Xrotation
						JOINT RightForeArm
						{
							OFFSET -5.241900 -0.000000 -0.000000
							CHANNELS 3 Zrotation Yrotation Xrotation
							JOINT RightHand
							{
								OFFSET -3.444170 -0.000000 -0.000000
								CHANNELS 3 Zrotation Yrotation Xrotation
								JOINT RightFingerBase
								{
									OFFSET 0.000000 0.000000 0.000000
									CHANNELS 3 Zrotation Yrotation Xrotation
									JOINT RightHandIndex1
									{
										OFFSET -0.622530 -0.000000 -0.000000
										CHANNELS 3 Zrotation Yrotation Xrotation
										End Site
										{
											OFFSET 0.000000 0.000000 0.000000
										}
									}
								}
								JOINT RThumb
								{
									OFFSET 0.000000 0.000000 0.000000
									CHANNELS 3 Zrotation Yrotation Xrotation
									End Site
									{
										OFFSET 0.000000 0.000000 0.000000
									}
								}
							}
						}
					}
				}
			}
		}
	}
}
MOTION
Frames: 5
Frame Time: 0.008333
15.368958 17.752744 -15.474531 6.222949 -57.503420 0.358567 5.022861 2.478617 0.994579 -17.734889 -9.617386 -12.995337 -1.074439 6.905733 19.301735 -3.524986 13.118753 3.965414 0.262300 -3.294700 -9.100400 -9.195041 -3.363283 -0.256420 22.667032 14.251584 -1.371220 -0.056250 -5.485125 17.789166 5.063425 -23.628748 -15.755658 -0.348200 3.791300 -10.490200 -3.150956 1.469489 -0.103822 -1.107798 1.145589 4.693630 0.791386 1.368492 -6.783155 -1.344886 2.975459 -7.342595 0.545000 3.465834 4.903872 -2.545600 1.638800 2.781200 -5.720008 -5.779707 -0.979213 -80.017740 1.092265 26.972827 18.154791 -23.138368 -5.485703 -0.686412 0.202338 -17.395329 13.729323 -22.192591 -5.590400 -7.125000 0.000000 0.000000 -9.148000 7.031900 8.065400 9.021745 6.433937 -0.722382 73.000642 -6.047226 50.492722 -20.322505 25.049988 -6.277069 1.282296 2.963880 -8.281189 -17.005987 -24.337669 8.726300 7.125000 0.000000 0.000000 12.784600 -57.754200 -4.035200 
15.371891 17.753856 -15.475745 6.432442 -57.492212 0.226639 5.019777 2.474996 0.994564 -17.831782 -9.767645 -12.923572 -1.086490 6.891503 19.251834 -3.568776 13.225675 3.826406 0.198400 -2.867900 -7.911300 -9.192656 -3.362801 -0.260064 22.514936 14.196494 -1.522992 -0.069084 -5.522352 17.875259 5.052220 -23.588819 -15.729623 -0.365000 3.880800 -10.741700 -3.258713 1.521103 -0.152598 -1.172100 1.217422 4.707967 0.795222 1.406973 -6.748127 -1.210183 2.951039 -7.287150 0.407799 3.416612 4.783878 -2.614000 1.607200 2.736100 -5.713969 -5.797861 -0.973546 -79.985850 0.971382 27.061316 18.169871 -23.146381 -5.490643 -0.696185 0.206136 -17.227127 13.945585 -22.214862 -5.687800 -7.125000 0.000000 0.000000 -9.008000 6.978000 7.948300 9.004349 6.439059 -0.724200 73.047041 -6.055308 50.143035 -20.458817 25.226175 -6.394730 1.267841 3.111721 -7.459357 -16.404764 -26.143477 8.967600 7.125000 0.000000 0.000000 14.647300 -59.550600 -5.273400 
15.372295 17.754362 -15.476149 6.401759 -57.447613 0.267603 5.023023 2.476096 0.994153 -17.839969 -9.601430 -13.062653 -1.078930 6.909090 19.281341 -3.533036 13.162233 4.049332 0.260200 -3.281700 -9.064100 -9.181673 -3.379653 -0.277126 22.474427 13.814794 -1.672877 -0.081721 -5.518551 17.856492 5.028741 -23.391292 -15.170498 -0.398200 4.051300 -11.221100 -3.282901 1.527817 -0.109817 -1.145186 1.219151 4.660588 0.822061 1.414581 -6.814935 -1.294985 2.933970 -7.257576 0.527504 3.394932 4.861682 -2.563800 1.603000 2.749000 -5.706164 -5.785314 -0.978091 -80.016982 1.013266 27.119991 18.211887 -23.204500 -5.519415 -0.682547 0.190965 -17.142429 13.851287 -22.063713 -5.606400 -7.125000 0.000000 0.000000 -9.064000 7.161400 7.966200 8.990107 6.436112 -0.721033 72.997260 -6.104532 50.174825 -20.588909 25.383036 -6.480732 1.274435 3.145386 -7.383642 -16.499249 -26.584216 9.152000 7.125000 0.000000 0.000000 14.847300 -60.033200 -5.519000 
15.375531 17.755676 -15.481104 6.024192 -57.327876 0.663007 5.029724 2.467097 0.980625 -17.636040 -9.408678 -13.357973 -1.066640 6.942170 19.326138 -3.512216 13.147881 4.328346 0.249000 -3.211100 -8.866900 -9.177958 -3.381599 -0.279534 22.656303 13.567120 -1.795722 -0.073413 -5.498560 17.781160 4.980711 -23.188260 -14.952892 -0.355000 3.828100 -10.593500 -3.045759 1.530418 -0.113712 -1.139229 1.227267 4.640347 0.707556 1.408308 -6.810783 -1.490252 2.891368 -7.249712 0.882584 3.313584 4.760053 -2.418100 1.565500 2.698900 -5.687037 -5.807470 -0.972235 -79.878929 0.969446 27.448644 18.289897 -23.313086 -5.573252 -0.664775 0.168503 -17.382300 13.644567 -21.938951 -5.484200 -7.125000 0.000000 0.000000 -9.194500 7.336800 8.052100 8.983513 6.431987 -0.727736 73.049971 -6.037979 50.120888 -20.645157 25.425293 -6.488244 1.247607 3.073172 -7.436046 -16.336061 -25.755043 8.802700 7.125000 0.000000 0.000000 14.482900 -59.122100 -5.063600 
15.380183 17.756687 -15.485352 5.817535 -57.254043 0.900158 5.033678 2.452330 0.967670 -17.493487 -9.533460 -13.413347 -1.065101 6.954441 19.341409 -3.524815 13.179515 4.303046 0.199900 -2.879200 -7.942700 -9.190988 -3.355969 -0.255867 22.833752 13.989755 -1.652102 -0.046019 -5.477154 17.714890 5.013281 -23.421756 -15.528291 -0.271300 3.350700 -9.256700 -2.901421 1.532142 -0.203328 -1.129877 1.238859 4.700114 0.636276 1.398896 -6.691959 -1.585813 2.882288 -7.300798 1.011234 3.291606 4.628141 -2.360300 1.549500 2.661000 -5.684040 -5.854762 -0.960955 -79.802192 0.722965 27.522055 18.280128 -23.281320 -5.560009 -0.672268 0.170036 -17.519427 13.740265 -21.938318 -5.525600 -7.125000 0.000000 0.000000 -9.130900 7.320700 7.997900 8.983670 6.449832 -0.725852 73.039861 -5.881681 50.062626 -20.695234 25.460469 -6.497159 1.221041 3.017601 -7.297535 -16.060755 -25.159761 8.467000 7.125000 0.000000 0.000000 14.429100 -58.432100 -4.804400 
